<svg width="14" height="13" viewBox="0 0 14 13" fill="none" xmlns="http://www.w3.org/2000/svg">
<path d="M13.1812 0.940841C13.1811 0.689887 13.0814 0.449222 12.904 0.271771C12.7265 0.0943196 12.4859 -0.00538829 12.2349 -0.00542626L4.66342 -0.00542605C4.53777 -0.00761009 4.41295 0.015252 4.29623 0.0618257C4.17951 0.1084 4.07323 0.177753 3.9836 0.265838C3.89397 0.353924 3.82278 0.458978 3.77419 0.574871C3.72559 0.690763 3.70056 0.815173 3.70056 0.940841C3.70056 1.06651 3.72559 1.19092 3.77419 1.30681C3.82278 1.42271 3.89397 1.52776 3.9836 1.61584C4.07323 1.70393 4.17951 1.77328 4.29623 1.81986C4.41295 1.86643 4.53777 1.88929 4.66342 1.88711L9.95021 1.88711L1.08781 10.7495C0.910328 10.927 0.810618 11.1677 0.810618 11.4187C0.810618 11.6697 0.910329 11.9104 1.08782 12.0879C1.2653 12.2654 1.50602 12.3651 1.75703 12.3651C2.00803 12.3651 2.24875 12.2654 2.42624 12.0879L11.2886 3.22554L11.2886 8.51232C11.2929 8.76044 11.3945 8.99694 11.5715 9.17088C11.7485 9.34482 11.9867 9.44229 12.2349 9.44229C12.4831 9.44229 12.7213 9.34482 12.8983 9.17088C13.0753 8.99694 13.1769 8.76044 13.1812 8.51232L13.1812 0.940841Z" fill="white"/>
</svg>
