<svg width="24" height="24" viewBox="0 0 24 24" fill="none" xmlns="http://www.w3.org/2000/svg">
<g clip-path="url(#clip0_3090_6733)">
<path d="M18.1812 6.94084C18.1811 6.68989 18.0814 6.44922 17.904 6.27177C17.7265 6.09432 17.4859 5.99461 17.2349 5.99457L9.66342 5.99457C9.53777 5.99239 9.41295 6.01525 9.29623 6.06183C9.17951 6.1084 9.07323 6.17775 8.9836 6.26584C8.89397 6.35392 8.82278 6.45898 8.77419 6.57487C8.72559 6.69076 8.70056 6.81517 8.70056 6.94084C8.70056 7.06651 8.72559 7.19092 8.77419 7.30681C8.82278 7.42271 8.89397 7.52776 8.9836 7.61584C9.07323 7.70393 9.17951 7.77328 9.29623 7.81986C9.41295 7.86643 9.53777 7.88929 9.66342 7.88711L14.9502 7.88711L6.08781 16.7495C5.91033 16.927 5.81062 17.1677 5.81062 17.4187C5.81062 17.6697 5.91033 17.9104 6.08782 18.0879C6.2653 18.2654 6.50602 18.3651 6.75703 18.3651C7.00803 18.3651 7.24875 18.2654 7.42624 18.0879L16.2886 9.22554L16.2886 14.5123C16.2929 14.7604 16.3945 14.9969 16.5715 15.1709C16.7485 15.3448 16.9867 15.4423 17.2349 15.4423C17.4831 15.4423 17.7213 15.3448 17.8983 15.1709C18.0753 14.9969 18.1769 14.7604 18.1812 14.5123L18.1812 6.94084Z" fill="#1E293B"/>
</g>
<defs>
<clipPath id="clip0_3090_6733">
<rect width="24" height="24" fill="white"/>
</clipPath>
</defs>
</svg>
