<svg width="153" height="16" viewBox="0 0 153 16" fill="none" xmlns="http://www.w3.org/2000/svg">
<path d="M150.955 11.052C151.443 11.052 151.815 11.1417 152.063 11.3733C152.313 11.6071 152.41 11.9589 152.41 12.4133C152.41 12.8722 152.297 13.219 152.042 13.4465C151.791 13.6711 151.425 13.7571 150.973 13.7571C150.499 13.7571 150.122 13.6869 149.866 13.469C149.604 13.2465 149.499 12.8963 149.499 12.4133C149.499 11.9575 149.601 11.6066 149.853 11.3733C150.103 11.1422 150.475 11.052 150.955 11.052ZM150.936 3.92993C151.426 3.92999 151.802 4.02512 152.054 4.26099C152.308 4.49884 152.41 4.85474 152.41 5.31079C152.41 5.78108 152.287 6.13148 152.022 6.3606C151.761 6.5862 151.388 6.67206 150.936 6.67212C150.461 6.67212 150.087 6.59742 149.835 6.37329C149.581 6.14583 149.48 5.7922 149.48 5.31079C149.48 4.85473 149.582 4.49973 149.833 4.26196C150.083 4.02583 150.455 3.92993 150.936 3.92993Z" fill="white" stroke="white" stroke-width="0.25"/>
<path d="M130.309 3.44287C131.735 3.44293 132.837 3.79475 133.653 4.41943C134.376 4.97307 134.864 5.7347 135.159 6.63232C135.975 4.69733 137.724 3.46143 140.148 3.46143C141.971 3.46146 143.329 3.98428 144.231 4.94873C145.131 5.91179 145.558 7.29646 145.558 8.98389V14.7876H143.828V9.17139C143.828 8.28404 143.698 7.55201 143.425 6.91553L143.424 6.91455C143.163 6.28298 142.745 5.79452 142.146 5.4624C141.545 5.12915 140.752 4.94877 139.736 4.94873C138.855 4.94873 138.127 5.1322 137.493 5.49463C136.265 6.19852 135.569 7.51912 135.569 9.28369V14.7876H133.838V9.07764C133.838 8.43501 133.739 7.83526 133.555 7.26514L133.471 7.02197C133.245 6.40753 132.863 5.89197 132.291 5.52881C131.719 5.16501 130.947 4.94876 129.934 4.94873C129.014 4.94873 128.229 5.13212 127.577 5.49463L127.575 5.49561C126.219 6.21877 125.449 7.61352 125.449 9.5835V14.7876H123.737V3.91162H125.275L125.28 4.03174L125.37 6.32275C126.215 4.61229 127.899 3.44287 130.309 3.44287Z" fill="white" stroke="white" stroke-width="0.25"/>
<path d="M108.746 3.91138V9.35864C108.746 10.7449 109.093 11.7987 109.815 12.5071C110.537 13.2158 111.657 13.6008 113.25 13.6008C114.753 13.6008 115.961 13.1535 116.792 12.3381C117.623 11.5231 118.092 10.3255 118.092 8.79614V3.91138H119.823V14.7874H118.265L118.261 14.6672L118.169 12.0374C117.307 13.9636 115.442 15.1252 112.82 15.1252C110.87 15.1252 109.409 14.6422 108.436 13.6907C107.462 12.7386 106.997 11.3376 106.997 9.54614V3.91138H108.746Z" fill="white" stroke="white" stroke-width="0.25"/>
<path d="M99.374 0.875V3.91113H104.229V5.41699H99.374V9.63965C99.374 10.6629 99.4862 11.4125 99.6836 11.916L99.7686 12.0986C99.9805 12.5049 100.287 12.7689 100.719 12.9385C101.22 13.1356 101.894 13.207 102.791 13.207H104.229V14.7871H102.529C101.357 14.7871 100.458 14.6356 99.7256 14.3271V14.3281C99.0009 14.0245 98.4952 13.5124 98.1738 12.7627C97.8549 12.0184 97.7188 11.0427 97.7188 9.80859V5.41699H94.8887V3.94824H95.501C96.0278 3.94824 96.5983 3.92932 96.7197 3.91211L96.7305 3.91113L97.1455 3.87891C97.2608 3.86565 97.3549 3.84914 97.4297 3.82422L97.4316 3.82324C97.5488 3.78661 97.6206 3.72469 97.6758 3.61426C97.7358 3.49397 97.7761 3.31588 97.8135 3.04492C97.8873 2.45354 97.9062 1.74824 97.9062 1V0.875H99.374Z" fill="white" stroke="white" stroke-width="0.25"/>
<path d="M87.1777 3.44287C88.5233 3.44288 89.6132 3.68954 90.498 4.17041C92.2714 5.13419 93.1307 6.88778 93.1309 9.11475V14.7876H91.4004V9.35889C91.4004 8.47316 91.2531 7.70529 90.9443 7.05127L90.9434 7.04834C90.645 6.37928 90.176 5.85699 89.5059 5.50049C88.8335 5.14291 87.9509 4.94873 86.8213 4.94873C85.7904 4.94877 84.8924 5.15057 84.1064 5.53369L83.8311 5.69189C82.4914 6.52045 81.7178 7.93965 81.7178 9.9585V14.7876H79.9873V3.91162H81.5449L81.5488 4.03174L81.6406 6.61279C82.5814 4.64022 84.5487 3.44287 87.1777 3.44287Z" fill="white" stroke="white" stroke-width="0.25"/>
<path d="M69.9661 3.44287C71.2247 3.44287 72.3288 3.63084 73.2756 3.98486L73.6721 4.14697L73.6731 4.14795C75.7608 5.1057 76.8752 6.85569 76.8752 9.18994V10.0269H64.428C64.5709 11.2279 65.0912 12.1172 65.9719 12.7153C66.8915 13.3398 68.2171 13.6567 69.9475 13.6567C72.4803 13.6567 73.9744 13.0322 74.7512 11.7769V11.6704H76.7034L76.6204 11.8481C75.4834 14.2762 73.0755 15.1245 69.8352 15.1245C67.4955 15.1245 65.7193 14.6115 64.5266 13.6304C63.3299 12.6459 62.7385 11.2053 62.7385 9.396C62.7386 8.13719 63.044 7.09967 63.6594 6.1958L63.6604 6.19482C64.8901 4.42731 67.1281 3.44294 69.9661 3.44287ZM69.9856 4.89209C68.9673 4.89209 68.0625 5.04071 67.2522 5.31689L67.2512 5.31592C65.6866 5.88569 64.6885 6.98504 64.4514 8.65283H75.1711C75.0634 7.42937 74.5644 6.50728 73.7239 5.88232C72.8489 5.23184 71.591 4.89216 69.9856 4.89209Z" fill="white" stroke="white" stroke-width="0.25"/>
<path d="M44.4662 3.44287C45.8923 3.44293 46.9939 3.79475 47.8099 4.41943C48.5331 4.97307 49.0208 5.7347 49.3158 6.63232C50.1322 4.69733 51.8812 3.46143 54.3051 3.46143C56.1279 3.46146 57.4865 3.98428 58.3881 4.94873C59.2882 5.91179 59.7152 7.29646 59.7152 8.98389V14.7876H57.9847V9.17139C57.9847 8.28404 57.8552 7.55201 57.5824 6.91553L57.5814 6.91455C57.3198 6.28298 56.9023 5.79452 56.3031 5.4624C55.7018 5.12915 54.9096 4.94877 53.8929 4.94873C53.0118 4.94873 52.2841 5.1322 51.6498 5.49463C50.4225 6.19852 49.726 7.51912 49.726 9.28369V14.7876H47.9955V9.07764C47.9955 8.43501 47.8966 7.83526 47.7123 7.26514L47.6283 7.02197C47.4024 6.40753 47.0202 5.89197 46.4486 5.52881C45.876 5.16501 45.1043 4.94875 44.0912 4.94873C43.1709 4.94873 42.3863 5.13212 41.7338 5.49463L41.7318 5.49561C40.376 6.21877 39.6059 7.61352 39.6058 9.5835V14.7876H37.8939V3.91162H39.432L39.4369 4.03174L39.5277 6.32275C40.3727 4.61229 42.0565 3.44287 44.4662 3.44287Z" fill="white" stroke="white" stroke-width="0.25"/>
<path d="M27.4884 3.44287C28.8889 3.44287 30.1061 3.6698 31.174 4.12744H31.173C32.2682 4.58465 33.1513 5.249 33.7599 6.12451C34.3689 7.00066 34.6974 8.08094 34.6974 9.35889C34.6974 11.1899 34.0523 12.6387 32.8068 13.6265C31.5657 14.6107 29.7445 15.1244 27.4142 15.1245C25.0751 15.1245 23.2851 14.6208 22.0782 13.6401C20.867 12.6557 20.2609 11.2059 20.2609 9.35889C20.2609 8.08103 20.586 7.00497 21.2218 6.11865V6.11768C22.5084 4.35111 24.7834 3.44294 27.4884 3.44287ZM27.4884 4.94873C26.453 4.94876 25.5309 5.11515 24.6837 5.42822C23.8594 5.74909 23.1974 6.22683 22.7413 6.87256C22.2852 7.51836 22.0284 8.34052 22.0284 9.35889C22.0285 10.8084 22.5178 11.8598 23.4249 12.5532C24.3382 13.2512 25.6936 13.6001 27.4513 13.6001C29.2374 13.6001 30.6162 13.2507 31.546 12.5522C32.4694 11.8585 32.9669 10.8075 32.9669 9.35889C32.9669 8.36653 32.7477 7.58871 32.2618 6.94092L32.2589 6.93896C31.3349 5.63451 29.6576 4.94873 27.4884 4.94873Z" fill="white" stroke="white" stroke-width="0.25"/>
<path d="M2.5127 1.26904L2.54883 1.3042L8.92773 7.49756L15.4004 1.3042L15.4365 1.26904H17.0176V14.7876H15.3242V3.59912L9.10742 9.56201L9.07129 9.59619H8.72754L8.69043 9.56104L2.56836 3.65576V14.7876H0.875V1.26904H2.5127Z" fill="white" stroke="white" stroke-width="0.25"/>
</svg>
