<svg width="57" height="16" viewBox="0 0 57 16" fill="none" xmlns="http://www.w3.org/2000/svg">
<path d="M7.1438 5.33643C7.19686 5.33647 7.24863 5.3509 7.29321 5.37842C7.31116 5.38947 7.3278 5.4026 7.34302 5.41748C7.6366 5.70491 8.6607 6.70837 9.68677 7.72705C9.74305 7.78291 9.79943 7.83916 9.85571 7.89502C9.88463 7.92363 9.9139 7.95235 9.94263 7.98096L10.1116 8.1499C10.2521 8.2898 10.391 8.42808 10.5256 8.56299C11.0109 9.04962 11.4469 9.49157 11.7415 9.80127C11.8349 9.89956 11.9278 9.99634 12.0208 10.0913C12.0826 10.1546 12.145 10.2172 12.2063 10.2798C12.2378 10.3119 12.2697 10.3443 12.301 10.3765C12.361 10.4381 12.4207 10.5001 12.4797 10.562C12.5095 10.5934 12.54 10.6252 12.5696 10.6567C12.6134 10.7035 12.6571 10.7511 12.7004 10.7983C12.7312 10.8319 12.7619 10.866 12.7922 10.8999C12.8191 10.9301 12.8457 10.961 12.8723 10.9917C12.9031 11.0271 12.9339 11.0631 12.9641 11.0991C12.9996 11.1415 13.0358 11.1838 13.0706 11.2271C13.0832 11.2429 13.0961 11.2599 13.1086 11.2759C13.1282 11.3006 13.148 11.326 13.1672 11.3511C13.1861 11.3758 13.2048 11.401 13.2229 11.4263C13.2278 11.4332 13.2326 11.4408 13.2375 11.4478C13.2524 11.4689 13.268 11.4907 13.2825 11.5122C13.2856 11.517 13.2891 11.5221 13.2922 11.5269C13.3091 11.5522 13.3259 11.5781 13.342 11.604C13.3466 11.6111 13.3504 11.6192 13.3547 11.6265C13.367 11.6467 13.3799 11.6666 13.3918 11.687C13.3964 11.6945 13.4002 11.7028 13.4045 11.7104C13.4193 11.7364 13.4345 11.7632 13.4485 11.7896C13.452 11.7965 13.4555 11.8041 13.4592 11.811C13.4699 11.8313 13.4804 11.8521 13.4905 11.8726C13.4952 11.8822 13.5006 11.8922 13.5051 11.9019C13.5163 11.9251 13.5267 11.9495 13.5374 11.9731C13.5411 11.9816 13.5453 11.9901 13.5491 11.9985C13.5588 12.0206 13.5684 12.0436 13.5774 12.0659C13.5818 12.0767 13.5867 12.0882 13.5911 12.0991C13.5987 12.1181 13.6064 12.1374 13.6135 12.1567C13.617 12.1663 13.6208 12.1765 13.6243 12.186C13.6336 12.2123 13.642 12.2395 13.6506 12.2661C13.6543 12.2775 13.6587 12.2889 13.6624 12.3003C13.6682 12.3185 13.6736 12.3376 13.679 12.356L13.6907 12.397C13.6971 12.4205 13.7043 12.4446 13.7102 12.4683C13.7124 12.4775 13.7149 12.4872 13.717 12.4966C13.7231 12.5219 13.7283 12.5481 13.7336 12.5737C13.735 12.5799 13.7363 12.5871 13.7375 12.5933C13.7429 12.6196 13.7486 12.6468 13.7532 12.6733C13.7544 12.6805 13.7558 12.6877 13.7571 12.6948C13.762 12.7239 13.7659 12.7542 13.7698 12.7837C13.7705 12.7897 13.772 12.7962 13.7727 12.8022C13.7767 12.8333 13.7805 12.8648 13.7834 12.896C13.789 12.9564 13.7922 13.0198 13.7942 13.0835C13.7957 13.1251 13.7965 13.1678 13.7961 13.2104V13.2114C13.7905 13.7983 13.6112 14.4937 13.0042 15.1343C12.4764 15.691 11.7291 15.9849 10.9631 15.9849H0.22583C0.203019 15.9849 0.180867 15.981 0.1604 15.9741C0.134192 15.9651 0.109326 15.9504 0.0891113 15.9321C0.0843704 15.9277 0.0798162 15.9222 0.0754395 15.9175C0.0467952 15.8862 0.0273955 15.8458 0.0227051 15.8013C0.0219783 15.7945 0.0217357 15.7867 0.0217285 15.7798V12.5444C0.021734 12.5304 0.0229412 12.5166 0.0256348 12.5034C0.0268896 12.4969 0.0285664 12.4902 0.0305176 12.4839C0.036888 12.4627 0.0473183 12.4429 0.0598145 12.4253C0.096894 12.3739 0.157759 12.3403 0.22583 12.3403H8.27954C8.29435 12.3403 8.30792 12.3369 8.32056 12.3325C8.40001 12.3044 8.43193 12.1983 8.36646 12.1313L4.28247 7.96533L2.2395 5.88232L2.14673 5.7876L1.77271 5.40576C1.74743 5.37988 1.76585 5.33643 1.802 5.33643H7.1438ZM39.4661 0.919434C40.3143 0.919434 40.8337 1.17632 41.1516 1.48975C41.6473 1.97867 41.6536 2.60498 41.6536 2.60498V9.34619C41.662 9.82377 41.4158 10.2942 41.0461 10.6499C41.0104 10.6845 40.9728 10.7173 40.9348 10.7495C40.9096 10.7709 40.8838 10.7917 40.8577 10.812C40.8315 10.8325 40.8045 10.8524 40.7776 10.8716C40.4401 11.1123 40.042 11.2632 39.6516 11.2681H33.1877V15.7788C33.1877 15.793 33.1854 15.8066 33.1829 15.8198C33.1803 15.8331 33.1763 15.8457 33.1711 15.8579C33.1514 15.9046 33.1153 15.9431 33.0696 15.9644C33.0436 15.9764 33.0142 15.9829 32.9836 15.9829H29.4104C29.3798 15.9829 29.3504 15.9765 29.3245 15.9644C29.2787 15.9431 29.2417 15.9047 29.2219 15.8579C29.2168 15.8458 29.2128 15.833 29.2102 15.8198C29.2076 15.8066 29.2063 15.7928 29.2063 15.7788V5.33447H32.9836C33.0657 5.33447 33.1369 5.38334 33.1692 5.45361C33.181 5.47954 33.1877 5.50828 33.1877 5.53857V7.53271C33.1879 7.60018 33.2425 7.65471 33.3098 7.65479H37.3928C37.46 7.65456 37.5147 7.60009 37.5149 7.53271V4.72705C37.5149 4.72289 37.5143 4.71834 37.5139 4.71436C37.5132 4.70636 37.5114 4.69855 37.509 4.69092C37.5009 4.66469 37.4843 4.6418 37.4622 4.62646C37.4609 4.6256 37.4595 4.62521 37.4583 4.62451C37.45 4.61936 37.4412 4.61496 37.4319 4.61182C37.4195 4.60761 37.4065 4.60503 37.3928 4.60498H29.2063V1.12354C29.2063 1.10941 29.2077 1.09573 29.2102 1.08252C29.2128 1.06921 29.2168 1.05566 29.2219 1.04346C29.2528 0.970221 29.326 0.919434 29.4104 0.919434H39.4661ZM50.5881 15.7788C50.5879 15.8914 50.4964 15.9829 50.384 15.9829H46.8108C46.7803 15.9828 46.7507 15.9765 46.7249 15.9644C46.6793 15.9431 46.643 15.9045 46.6233 15.8579C46.6182 15.8458 46.6141 15.833 46.6116 15.8198C46.609 15.8067 46.6077 15.7927 46.6077 15.7788V4.72803C46.6077 4.7239 46.6071 4.7193 46.6067 4.71533C46.606 4.70726 46.6042 4.69863 46.6018 4.69092C46.5907 4.6551 46.5632 4.62704 46.5286 4.61377C46.515 4.60863 46.4999 4.60498 46.4846 4.60498H42.9036C42.7913 4.60479 42.6996 4.51342 42.6995 4.40088V1.12354C42.6996 1.04621 42.7426 0.978432 42.8059 0.943848H42.8069C42.8154 0.93912 42.825 0.935412 42.8342 0.932129C42.8559 0.924248 42.8794 0.919479 42.9036 0.919434H50.5881V15.7788ZM25.5813 0.914551C25.954 0.91566 26.3014 1.00676 26.5989 1.16846C26.6398 1.19063 26.6801 1.2148 26.719 1.23975C26.7229 1.24215 26.7276 1.24399 26.7317 1.24658C26.7486 1.25744 26.765 1.26935 26.7815 1.28076C26.7925 1.28847 26.8037 1.29631 26.8147 1.3042C27.1884 1.57578 27.455 1.97361 27.5481 2.44678L27.5774 2.65479C27.5783 2.66699 27.5793 2.67969 27.5793 2.69189V4.02783L27.5784 7.56982V13.9058C27.5911 15.0963 26.6033 15.9958 25.4778 15.981H17.1047C16.4571 15.9895 15.855 15.6957 15.4631 15.2173C15.448 15.199 15.4336 15.1795 15.4192 15.1606C15.3748 15.1025 15.3333 15.0421 15.2952 14.979C15.288 14.9672 15.2805 14.9549 15.2737 14.9429C15.2643 14.9267 15.2553 14.9096 15.2463 14.8931C15.2386 14.8789 15.2312 14.8644 15.2239 14.8501C15.1939 14.7911 15.1661 14.7308 15.1418 14.6685C15.1277 14.632 15.1149 14.5947 15.1028 14.5571C15.0995 14.5469 15.0961 14.5361 15.093 14.5259C15.0858 14.5022 15.079 14.4778 15.0725 14.4536C15.0701 14.4449 15.0679 14.4359 15.0657 14.4272C15.0592 14.4012 15.0526 14.3747 15.0471 14.3481C15.0457 14.3413 15.0445 14.3345 15.0432 14.3276C15.0165 14.1922 15.0037 14.051 15.0051 13.9058V5.33545H18.4182C18.4674 5.33545 18.5129 5.35218 18.5481 5.38135C18.5531 5.38542 18.5581 5.3904 18.5627 5.39502C18.5794 5.41183 18.5927 5.43195 18.6028 5.45361C18.6148 5.47969 18.6223 5.50904 18.6223 5.53955V12.2163C18.6223 12.2305 18.6247 12.2446 18.6292 12.2573C18.6352 12.2745 18.6447 12.2904 18.6575 12.3032C18.6647 12.3104 18.6738 12.3164 18.6829 12.3218C18.6838 12.3224 18.6847 12.3231 18.6858 12.3237C18.7031 12.3332 18.7234 12.3394 18.7444 12.3394H23.8381C23.8717 12.3393 23.902 12.3252 23.9241 12.3032C23.9462 12.281 23.9602 12.2501 23.9602 12.2163V4.72803C23.9601 4.68827 23.9408 4.65266 23.9114 4.63037C23.9065 4.62677 23.9011 4.62349 23.8958 4.62061C23.8924 4.61881 23.8886 4.61716 23.885 4.61572C23.8706 4.60973 23.8549 4.606 23.8381 4.60596H15.0139V2.68994C15.0141 2.67836 15.014 2.66637 15.0149 2.65479C15.054 2.196 15.2513 1.79591 15.553 1.49561L15.554 1.49463C15.5736 1.47513 15.5939 1.45559 15.6145 1.43701C15.6369 1.41661 15.6604 1.39675 15.6838 1.37744C15.6998 1.36415 15.7161 1.35114 15.7327 1.33838C16.0785 1.07176 16.5233 0.916065 17.011 0.914551H25.5813ZM11.0686 0.919434C11.132 0.919491 11.1916 0.949752 11.2297 1.00049L13.7043 4.30713L13.7815 4.40967C13.8412 4.49044 13.7833 4.60498 13.6829 4.60498H1.31274V2.60498C1.31292 1.61793 2.07356 0.927639 3.21216 0.919434H11.0686ZM56.6379 0.919434C56.7366 0.919444 56.7944 1.03046 56.7385 1.11182L56.7122 1.1499L54.4963 4.36865C54.3692 4.54731 54.259 4.60498 54.0325 4.60498H51.3157V0.919434H56.6379Z" fill="white"/>
</svg>
