<svg width="58" height="20" viewBox="0 0 58 20" fill="none" xmlns="http://www.w3.org/2000/svg">
<path d="M8.1438 9.33643C8.19686 9.33647 8.24863 9.3509 8.29321 9.37842C8.31116 9.38947 8.3278 9.4026 8.34302 9.41748C8.6366 9.70491 9.6607 10.7084 10.6868 11.7271C10.743 11.7829 10.7994 11.8392 10.8557 11.895C10.8846 11.9236 10.9139 11.9523 10.9426 11.981L11.1116 12.1499C11.2521 12.2898 11.391 12.4281 11.5256 12.563C12.0109 13.0496 12.4469 13.4916 12.7415 13.8013C12.8349 13.8996 12.9278 13.9963 13.0208 14.0913C13.0826 14.1546 13.145 14.2172 13.2063 14.2798C13.2378 14.3119 13.2697 14.3443 13.301 14.3765C13.361 14.4381 13.4207 14.5001 13.4797 14.562C13.5095 14.5934 13.54 14.6252 13.5696 14.6567C13.6134 14.7035 13.6571 14.7511 13.7004 14.7983C13.7312 14.8319 13.7619 14.866 13.7922 14.8999C13.8191 14.9301 13.8457 14.961 13.8723 14.9917C13.9031 15.0271 13.9339 15.0631 13.9641 15.0991C13.9996 15.1415 14.0358 15.1838 14.0706 15.2271C14.0832 15.2429 14.0961 15.2599 14.1086 15.2759C14.1282 15.3006 14.148 15.326 14.1672 15.3511C14.1861 15.3758 14.2048 15.401 14.2229 15.4263C14.2278 15.4332 14.2326 15.4408 14.2375 15.4478C14.2524 15.4689 14.268 15.4907 14.2825 15.5122C14.2856 15.517 14.2891 15.5221 14.2922 15.5269C14.3091 15.5522 14.3259 15.5781 14.342 15.604C14.3466 15.6111 14.3504 15.6192 14.3547 15.6265C14.367 15.6467 14.3799 15.6666 14.3918 15.687C14.3964 15.6945 14.4002 15.7028 14.4045 15.7104C14.4193 15.7364 14.4345 15.7632 14.4485 15.7896C14.452 15.7965 14.4555 15.8041 14.4592 15.811C14.4699 15.8313 14.4804 15.8521 14.4905 15.8726C14.4952 15.8822 14.5006 15.8922 14.5051 15.9019C14.5163 15.9251 14.5267 15.9495 14.5374 15.9731C14.5411 15.9816 14.5453 15.9901 14.5491 15.9985C14.5588 16.0206 14.5684 16.0436 14.5774 16.0659C14.5818 16.0767 14.5867 16.0882 14.5911 16.0991C14.5987 16.1181 14.6064 16.1374 14.6135 16.1567C14.617 16.1663 14.6208 16.1765 14.6243 16.186C14.6336 16.2123 14.642 16.2395 14.6506 16.2661C14.6543 16.2775 14.6587 16.2889 14.6624 16.3003C14.6682 16.3185 14.6736 16.3376 14.679 16.356L14.6907 16.397C14.6971 16.4205 14.7043 16.4446 14.7102 16.4683C14.7124 16.4775 14.7149 16.4872 14.717 16.4966C14.7231 16.5219 14.7283 16.5481 14.7336 16.5737C14.735 16.5799 14.7363 16.5871 14.7375 16.5933C14.7429 16.6196 14.7486 16.6468 14.7532 16.6733C14.7544 16.6805 14.7558 16.6877 14.7571 16.6948C14.762 16.7239 14.7659 16.7542 14.7698 16.7837C14.7705 16.7897 14.772 16.7962 14.7727 16.8022C14.7767 16.8333 14.7805 16.8648 14.7834 16.896C14.789 16.9564 14.7922 17.0198 14.7942 17.0835C14.7957 17.1251 14.7965 17.1678 14.7961 17.2104V17.2114C14.7905 17.7983 14.6112 18.4937 14.0042 19.1343C13.4764 19.691 12.7291 19.9849 11.9631 19.9849H1.22583C1.20302 19.9849 1.18087 19.981 1.1604 19.9741C1.13419 19.9651 1.10933 19.9504 1.08911 19.9321C1.08437 19.9277 1.07982 19.9222 1.07544 19.9175C1.0468 19.8862 1.0274 19.8458 1.02271 19.8013C1.02198 19.7945 1.02174 19.7867 1.02173 19.7798V16.5444C1.02173 16.5304 1.02294 16.5166 1.02563 16.5034C1.02689 16.4969 1.02857 16.4902 1.03052 16.4839C1.03689 16.4627 1.04732 16.4429 1.05981 16.4253C1.09689 16.3739 1.15776 16.3403 1.22583 16.3403H9.27954C9.29435 16.3403 9.30792 16.3369 9.32056 16.3325C9.40001 16.3044 9.43193 16.1983 9.36646 16.1313L5.28247 11.9653L3.2395 9.88232L3.14673 9.7876L2.77271 9.40576C2.74743 9.37988 2.76585 9.33643 2.802 9.33643H8.1438ZM40.4661 4.91943C41.3143 4.91943 41.8337 5.17632 42.1516 5.48975C42.6473 5.97867 42.6536 6.60498 42.6536 6.60498V13.3462C42.662 13.8238 42.4158 14.2942 42.0461 14.6499C42.0104 14.6845 41.9728 14.7173 41.9348 14.7495C41.9096 14.7709 41.8838 14.7917 41.8577 14.812C41.8315 14.8325 41.8045 14.8524 41.7776 14.8716C41.4401 15.1123 41.042 15.2632 40.6516 15.2681H34.1877V19.7788C34.1877 19.793 34.1854 19.8066 34.1829 19.8198C34.1803 19.8331 34.1763 19.8457 34.1711 19.8579C34.1514 19.9046 34.1153 19.9431 34.0696 19.9644C34.0436 19.9764 34.0142 19.9829 33.9836 19.9829H30.4104C30.3798 19.9829 30.3504 19.9765 30.3245 19.9644C30.2787 19.9431 30.2417 19.9047 30.2219 19.8579C30.2168 19.8458 30.2128 19.833 30.2102 19.8198C30.2076 19.8066 30.2063 19.7928 30.2063 19.7788V9.33447H33.9836C34.0657 9.33447 34.1369 9.38334 34.1692 9.45361C34.181 9.47954 34.1877 9.50828 34.1877 9.53857V11.5327C34.1879 11.6002 34.2425 11.6547 34.3098 11.6548H38.3928C38.46 11.6546 38.5147 11.6001 38.5149 11.5327V8.72705C38.5149 8.72289 38.5143 8.71834 38.5139 8.71436C38.5132 8.70636 38.5114 8.69855 38.509 8.69092C38.5009 8.66469 38.4843 8.6418 38.4622 8.62646C38.4609 8.6256 38.4595 8.62521 38.4583 8.62451C38.45 8.61936 38.4412 8.61496 38.4319 8.61182C38.4195 8.60761 38.4065 8.60503 38.3928 8.60498H30.2063V5.12354C30.2063 5.10941 30.2077 5.09573 30.2102 5.08252C30.2128 5.06921 30.2168 5.05566 30.2219 5.04346C30.2528 4.97022 30.326 4.91943 30.4104 4.91943H40.4661ZM51.5881 19.7788C51.5879 19.8914 51.4964 19.9829 51.384 19.9829H47.8108C47.7803 19.9828 47.7507 19.9765 47.7249 19.9644C47.6793 19.9431 47.643 19.9045 47.6233 19.8579C47.6182 19.8458 47.6141 19.833 47.6116 19.8198C47.609 19.8067 47.6077 19.7927 47.6077 19.7788V8.72803C47.6077 8.7239 47.6071 8.7193 47.6067 8.71533C47.606 8.70726 47.6042 8.69863 47.6018 8.69092C47.5907 8.6551 47.5632 8.62704 47.5286 8.61377C47.515 8.60863 47.4999 8.60498 47.4846 8.60498H43.9036C43.7913 8.60479 43.6996 8.51342 43.6995 8.40088V5.12354C43.6996 5.04621 43.7426 4.97843 43.8059 4.94385H43.8069C43.8154 4.93912 43.825 4.93541 43.8342 4.93213C43.8559 4.92425 43.8794 4.91948 43.9036 4.91943H51.5881V19.7788ZM26.5813 4.91455C26.954 4.91566 27.3014 5.00676 27.5989 5.16846C27.6398 5.19063 27.6801 5.2148 27.719 5.23975C27.7229 5.24215 27.7276 5.24399 27.7317 5.24658C27.7486 5.25744 27.765 5.26935 27.7815 5.28076C27.7925 5.28847 27.8037 5.29631 27.8147 5.3042C28.1884 5.57578 28.455 5.97361 28.5481 6.44678L28.5774 6.65479C28.5783 6.66699 28.5793 6.67969 28.5793 6.69189V8.02783L28.5784 11.5698V17.9058C28.5911 19.0963 27.6033 19.9958 26.4778 19.981H18.1047C17.4571 19.9895 16.855 19.6957 16.4631 19.2173C16.448 19.199 16.4336 19.1795 16.4192 19.1606C16.3748 19.1025 16.3333 19.0421 16.2952 18.979C16.288 18.9672 16.2805 18.9549 16.2737 18.9429C16.2643 18.9267 16.2553 18.9096 16.2463 18.8931C16.2386 18.8789 16.2312 18.8644 16.2239 18.8501C16.1939 18.7911 16.1661 18.7308 16.1418 18.6685C16.1277 18.632 16.1149 18.5947 16.1028 18.5571C16.0995 18.5469 16.0961 18.5361 16.093 18.5259C16.0858 18.5022 16.079 18.4778 16.0725 18.4536C16.0701 18.4449 16.0679 18.4359 16.0657 18.4272C16.0592 18.4012 16.0526 18.3747 16.0471 18.3481C16.0457 18.3413 16.0445 18.3345 16.0432 18.3276C16.0165 18.1922 16.0037 18.051 16.0051 17.9058V9.33545H19.4182C19.4674 9.33545 19.5129 9.35218 19.5481 9.38135C19.5531 9.38542 19.5581 9.3904 19.5627 9.39502C19.5794 9.41183 19.5927 9.43195 19.6028 9.45361C19.6148 9.47969 19.6223 9.50904 19.6223 9.53955V16.2163C19.6223 16.2305 19.6247 16.2446 19.6292 16.2573C19.6352 16.2745 19.6447 16.2904 19.6575 16.3032C19.6647 16.3104 19.6738 16.3164 19.6829 16.3218C19.6838 16.3224 19.6847 16.3231 19.6858 16.3237C19.7031 16.3332 19.7234 16.3394 19.7444 16.3394H24.8381C24.8717 16.3393 24.902 16.3252 24.9241 16.3032C24.9462 16.281 24.9602 16.2501 24.9602 16.2163V8.72803C24.9601 8.68827 24.9408 8.65266 24.9114 8.63037C24.9065 8.62677 24.9011 8.62349 24.8958 8.62061C24.8924 8.61881 24.8886 8.61716 24.885 8.61572C24.8706 8.60973 24.8549 8.606 24.8381 8.60596H16.0139V6.68994C16.0141 6.67836 16.014 6.66637 16.0149 6.65479C16.054 6.196 16.2513 5.79591 16.553 5.49561L16.554 5.49463C16.5736 5.47513 16.5939 5.45559 16.6145 5.43701C16.6369 5.41661 16.6604 5.39675 16.6838 5.37744C16.6998 5.36415 16.7161 5.35114 16.7327 5.33838C17.0785 5.07176 17.5233 4.91606 18.011 4.91455H26.5813ZM12.0686 4.91943C12.132 4.91949 12.1916 4.94975 12.2297 5.00049L14.7043 8.30713L14.7815 8.40967C14.8412 8.49044 14.7833 8.60498 14.6829 8.60498H2.31274V6.60498C2.31292 5.61793 3.07356 4.92764 4.21216 4.91943H12.0686ZM57.6379 4.91943C57.7366 4.91944 57.7944 5.03046 57.7385 5.11182L57.7122 5.1499L55.4963 8.36865C55.3692 8.54731 55.259 8.60498 55.0325 8.60498H52.3157V4.91943H57.6379Z" fill="white"/>
<path d="M55.9202 1.37504V1.83521H55.6956V0.536865H56.3822C56.8296 0.536865 57.0122 0.659213 57.0122 0.934952C57.0122 1.13582 56.9136 1.23808 56.7072 1.28191C56.9081 1.32391 56.9884 1.43165 56.9884 1.67087V1.75304C56.9884 1.78773 56.9957 1.8206 57.0195 1.83521H56.7803C56.7565 1.82243 56.751 1.78591 56.751 1.75121V1.67087C56.751 1.59417 56.7401 1.53573 56.7182 1.49373C56.6725 1.40608 56.5703 1.37504 56.3822 1.37504H55.9202ZM56.3712 1.18147C56.4516 1.18147 56.5246 1.176 56.5849 1.16687C56.7072 1.14495 56.7803 1.08652 56.7803 0.962344V0.947735C56.7803 0.774257 56.6561 0.730431 56.3803 0.730431H55.9202V1.18147H56.3712Z" fill="white"/>
<path d="M54.7183 1.83521H53.4583V0.536865H54.6817V0.728604H53.6756V1.09747H54.5265V1.28739H53.6756V1.63617H54.7183V1.83521Z" fill="white"/>
<path d="M52.1566 1.29469H51.2673V1.83521H51.0409V0.536865H51.2673V1.07921H52.1566V0.536865H52.3794V1.83521H52.1566V1.29469Z" fill="white"/>
<path d="M49.5405 0.732257V1.83521H49.3104V0.732257H48.8064V0.536865H50.0682V0.732257H49.5405Z" fill="white"/>
<path d="M47.9154 1.83521H46.6554V0.536865H47.8789V0.728604H46.8727V1.09747H47.7237V1.28739H46.8727V1.63617H47.9154V1.83521Z" fill="white"/>
<path d="M45.4124 1.48112C45.3978 1.55781 45.3649 1.62355 45.3193 1.68199C45.2243 1.79886 45.06 1.87007 44.808 1.87007C44.6619 1.87007 44.534 1.84451 44.4245 1.79886C44.2072 1.70025 44.0793 1.50851 44.0793 1.20538V1.19807C44.0793 1.05199 44.1104 0.925986 44.1798 0.823726C44.3149 0.617378 44.556 0.507812 44.8591 0.507812C44.9942 0.507812 45.1111 0.526073 45.217 0.557117C45.427 0.622856 45.564 0.761639 45.6078 0.989899H45.3521C45.3065 0.794508 45.144 0.712334 44.8646 0.712334C44.5213 0.712334 44.3131 0.865726 44.3131 1.20173V1.20355C44.3131 1.51946 44.5012 1.67468 44.8463 1.67468C44.9687 1.67468 45.0691 1.66007 45.1476 1.63086C45.3047 1.57242 45.3813 1.47199 45.396 1.35512H44.8262V1.16703H45.6133V1.83538H45.4252L45.4124 1.48112Z" fill="white"/>
<path d="M42.3379 1.87007C42.1881 1.87007 42.0567 1.84451 41.9398 1.79886C41.7079 1.70025 41.5691 1.50851 41.5691 1.1999V1.19442C41.5691 1.04833 41.6001 0.92416 41.6695 0.8219C41.8047 0.615552 42.042 0.507812 42.3379 0.507812C42.484 0.507812 42.6154 0.535204 42.7323 0.586334C42.9679 0.692247 43.1121 0.894943 43.1121 1.1926V1.20173C43.1121 1.35329 43.0793 1.47564 43.0099 1.57607C42.8747 1.77512 42.6337 1.87007 42.3379 1.87007ZM42.336 1.66555C42.4438 1.66555 42.5387 1.64912 42.6191 1.61807C42.7834 1.55599 42.8802 1.42268 42.8802 1.1999C42.8802 1.08486 42.8583 0.993552 42.8127 0.922334C42.7214 0.778073 42.5588 0.712334 42.3379 0.712334C42.0074 0.712334 41.801 0.862073 41.801 1.19807V1.1999C41.801 1.30581 41.8229 1.39164 41.8686 1.46103C41.9599 1.59981 42.1224 1.66555 42.336 1.66555Z" fill="white"/>
<path d="M40.2381 0.732257V1.83521H40.008V0.732257H39.504V0.536865H40.7659V0.732257H40.2381Z" fill="white"/>
<path d="M36.1284 0.818083V1.83521H35.9093V0.536865H36.1394L37.0031 1.47547L37.0543 1.53939V0.536865H37.2716V1.83521H37.0579L36.1777 0.878343L36.1284 0.818083Z" fill="white"/>
<path d="M34.1286 1.87007C33.9789 1.87007 33.8474 1.84451 33.7306 1.79886C33.4986 1.70025 33.3599 1.50851 33.3599 1.1999V1.19442C33.3599 1.04833 33.3909 0.92416 33.4603 0.8219C33.5954 0.615552 33.8328 0.507812 34.1286 0.507812C34.2747 0.507812 34.4062 0.535204 34.5231 0.586334C34.7586 0.692247 34.9029 0.894943 34.9029 1.1926V1.20173C34.9029 1.35329 34.87 1.47564 34.8006 1.57607C34.6655 1.77512 34.4245 1.87007 34.1286 1.87007ZM34.1268 1.66555C34.2346 1.66555 34.3295 1.64912 34.4099 1.61807C34.5742 1.55599 34.671 1.42268 34.671 1.1999C34.671 1.08486 34.6491 0.993552 34.6034 0.922334C34.5121 0.778073 34.3496 0.712334 34.1286 0.712334C33.7981 0.712334 33.5918 0.862073 33.5918 1.19807V1.1999C33.5918 1.30581 33.6137 1.39164 33.6593 1.46103C33.7506 1.59981 33.9132 1.66555 34.1268 1.66555Z" fill="white"/>
<path d="M31.5739 1.83521V1.62521H31.9245V0.739561H31.5739V0.536865H32.4905V0.739561H32.1399V1.62521H32.4905V1.83521H31.5739Z" fill="white"/>
<path d="M29.997 1.8719C29.8254 1.8719 29.6884 1.85546 29.5807 1.81894C29.3652 1.74773 29.2593 1.60529 29.2228 1.37703H29.4656C29.5076 1.60164 29.6775 1.67468 30.0025 1.67468C30.3002 1.67468 30.4262 1.60529 30.4262 1.47016C30.4262 1.4172 30.4097 1.37886 30.375 1.35146C30.3056 1.30216 30.1559 1.28755 29.8838 1.27294C29.7487 1.26381 29.641 1.24738 29.5496 1.22364C29.3743 1.17799 29.2867 1.0812 29.2867 0.9059C29.2867 0.66303 29.4949 0.507812 29.9149 0.507812C30.355 0.507812 30.5942 0.648421 30.6471 0.949726H30.4079C30.3769 0.763465 30.1997 0.699552 29.9112 0.699552C29.6282 0.699552 29.5131 0.770769 29.5131 0.900421C29.5131 0.942421 29.5259 0.975291 29.5533 0.99903C29.6044 1.04833 29.7323 1.06842 29.9843 1.08303C30.1376 1.09033 30.2636 1.1086 30.3623 1.13233C30.5613 1.18164 30.6526 1.27477 30.6526 1.45373C30.6526 1.71851 30.4499 1.8719 29.997 1.8719Z" fill="white"/>
<path d="M27.6599 1.8719C27.4882 1.8719 27.3513 1.85546 27.2435 1.81894C27.0281 1.74773 26.9221 1.60529 26.8856 1.37703H27.1285C27.1705 1.60164 27.3403 1.67468 27.6654 1.67468C27.963 1.67468 28.089 1.60529 28.089 1.47016C28.089 1.4172 28.0726 1.37886 28.0379 1.35146C27.9685 1.30216 27.8188 1.28755 27.5467 1.27294C27.4115 1.26381 27.3038 1.24738 27.2125 1.22364C27.0372 1.17799 26.9495 1.0812 26.9495 0.9059C26.9495 0.66303 27.1577 0.507812 27.5777 0.507812C28.0178 0.507812 28.257 0.648421 28.31 0.949726H28.0708C28.0397 0.763465 27.8626 0.699552 27.5741 0.699552C27.291 0.699552 27.176 0.770769 27.176 0.900421C27.176 0.942421 27.1888 0.975291 27.2161 0.99903C27.2673 1.04833 27.3951 1.06842 27.6471 1.08303C27.8005 1.09033 27.9265 1.1086 28.0251 1.13233C28.2241 1.18164 28.3154 1.27477 28.3154 1.45373C28.3154 1.71851 28.1127 1.8719 27.6599 1.8719Z" fill="white"/>
<path d="M25.676 1.51017H24.8981L24.7355 1.83521H24.4908L25.1647 0.536865H25.4002L26.085 1.83521H25.844L25.676 1.51017ZM25.2815 0.743213L24.9912 1.32391H25.581L25.2815 0.743213Z" fill="white"/>
<path d="M22.735 1.42617V1.83521H22.5122V0.536865H23.1659C23.6334 0.536865 23.8197 0.677474 23.8197 0.986083C23.8197 1.27643 23.6115 1.428 23.1915 1.42617H22.735ZM22.735 0.728604V1.23443H23.1806C23.4691 1.23443 23.5932 1.17052 23.5932 0.984257C23.5932 0.914865 23.5768 0.863735 23.5476 0.827213C23.4873 0.75417 23.3613 0.728604 23.1659 0.728604H22.735Z" fill="white"/>
<path d="M19.1306 1.37504V1.83521H18.906V0.536865H19.5926C20.04 0.536865 20.2226 0.659213 20.2226 0.934952C20.2226 1.13582 20.124 1.23808 19.9177 1.28191C20.1185 1.32391 20.1989 1.43165 20.1989 1.67087V1.75304C20.1989 1.78773 20.2062 1.8206 20.2299 1.83521H19.9907C19.967 1.82243 19.9615 1.78591 19.9615 1.75121V1.67087C19.9615 1.59417 19.9505 1.53573 19.9286 1.49373C19.883 1.40608 19.7807 1.37504 19.5926 1.37504H19.1306ZM19.5817 1.18147C19.662 1.18147 19.735 1.176 19.7953 1.16687C19.9177 1.14495 19.9907 1.08652 19.9907 0.962344V0.947735C19.9907 0.774257 19.8665 0.730431 19.5908 0.730431H19.1306V1.18147H19.5817Z" fill="white"/>
<path d="M17.1709 1.87173C16.7089 1.87173 16.4861 1.65626 16.4861 1.13765V0.536865H16.7216V1.13217C16.7216 1.50652 16.8623 1.65443 17.1727 1.65443C17.4795 1.65443 17.6164 1.512 17.6164 1.13034V0.536865H17.852V1.13582C17.852 1.3093 17.8246 1.44991 17.7735 1.55947C17.6657 1.77678 17.4649 1.87173 17.1709 1.87173Z" fill="white"/>
<path d="M14.7258 1.87007C14.5761 1.87007 14.4446 1.84451 14.3277 1.79886C14.0958 1.70025 13.957 1.50851 13.957 1.1999V1.19442C13.957 1.04833 13.9881 0.92416 14.0575 0.8219C14.1926 0.615552 14.43 0.507812 14.7258 0.507812C14.8719 0.507812 15.0034 0.535204 15.1202 0.586334C15.3558 0.692247 15.5001 0.894943 15.5001 1.1926V1.20173C15.5001 1.35329 15.4672 1.47564 15.3978 1.57607C15.2627 1.77512 15.0216 1.87007 14.7258 1.87007ZM14.724 1.66555C14.8317 1.66555 14.9267 1.64912 15.007 1.61807C15.1714 1.55599 15.2682 1.42268 15.2682 1.1999C15.2682 1.08486 15.2462 0.993552 15.2006 0.922334C15.1093 0.778073 14.9468 0.712334 14.7258 0.712334C14.3953 0.712334 14.1889 0.862073 14.1889 1.19807V1.1999C14.1889 1.30581 14.2109 1.39164 14.2565 1.46103C14.3478 1.59981 14.5103 1.66555 14.724 1.66555Z" fill="white"/>
<path d="M11.2733 0.732257V1.83521H11.0432V0.732257H10.5392V0.536865H11.801V0.732257H11.2733Z" fill="white"/>
<path d="M8.89218 1.87173C8.43018 1.87173 8.2074 1.65626 8.2074 1.13765V0.536865H8.44296V1.13217C8.44296 1.50652 8.58357 1.65443 8.89401 1.65443C9.20079 1.65443 9.33775 1.512 9.33775 1.13034V0.536865H9.57331V1.13582C9.57331 1.3093 9.54592 1.44991 9.49479 1.55947C9.38705 1.77678 9.18618 1.87173 8.89218 1.87173Z" fill="white"/>
<path d="M6.44713 1.87007C6.29739 1.87007 6.16591 1.84451 6.04904 1.79886C5.81713 1.70025 5.67834 1.50851 5.67834 1.1999V1.19442C5.67834 1.04833 5.70939 0.92416 5.77878 0.8219C5.91391 0.615552 6.1513 0.507812 6.44713 0.507812C6.59321 0.507812 6.72469 0.535204 6.84156 0.586334C7.07713 0.692247 7.22139 0.894943 7.22139 1.1926V1.20173C7.22139 1.35329 7.18852 1.47564 7.11913 1.57607C6.984 1.77512 6.74295 1.87007 6.44713 1.87007ZM6.4453 1.66555C6.55304 1.66555 6.648 1.64912 6.72834 1.61807C6.89269 1.55599 6.98948 1.42268 6.98948 1.1999C6.98948 1.08486 6.96756 0.993552 6.92191 0.922334C6.83061 0.778073 6.66808 0.712334 6.44713 0.712334C6.11661 0.712334 5.91026 0.862073 5.91026 1.19807V1.1999C5.91026 1.30581 5.93217 1.39164 5.97782 1.46103C6.06913 1.59981 6.23165 1.66555 6.4453 1.66555Z" fill="white"/>
<path d="M4.44972 1.29469H3.56042V1.83521H3.33398V0.536865H3.56042V1.07921H4.44972V0.536865H4.67251V1.83521H4.44972V1.29469Z" fill="white"/>
<path d="M1.68954 1.8719C1.51789 1.8719 1.38094 1.85546 1.2732 1.81894C1.05772 1.74773 0.951805 1.60529 0.915283 1.37703H1.15815C1.20015 1.60164 1.36998 1.67468 1.69502 1.67468C1.99267 1.67468 2.11867 1.60529 2.11867 1.47016C2.11867 1.4172 2.10224 1.37886 2.06754 1.35146C1.99815 1.30216 1.84841 1.28755 1.57633 1.27294C1.4412 1.26381 1.33346 1.24738 1.24215 1.22364C1.06685 1.17799 0.979196 1.0812 0.979196 0.9059C0.979196 0.66303 1.18737 0.507812 1.60737 0.507812C2.04746 0.507812 2.28667 0.648421 2.33963 0.949726H2.10041C2.06937 0.763465 1.89224 0.699552 1.60372 0.699552C1.32067 0.699552 1.20563 0.770769 1.20563 0.900421C1.20563 0.942421 1.21841 0.975291 1.2458 0.99903C1.29694 1.04833 1.42476 1.06842 1.67676 1.08303C1.83015 1.09033 1.95615 1.1086 2.05476 1.13233C2.2538 1.18164 2.34511 1.27477 2.34511 1.45373C2.34511 1.71851 2.14241 1.8719 1.68954 1.8719Z" fill="white"/>
</svg>
